<svg width="24" height="24" viewBox="0 0 24 24" fill="none" xmlns="http://www.w3.org/2000/svg">
<path d="M17.0881 4.37041L17.0881 4.37039C15.9124 3.52029 15.0107 2.86923 14.2315 2.43198C13.438 1.98672 12.7497 1.75 12 1.75C11.2504 1.75 10.5619 1.98672 9.7685 2.43198L9.52712 2.00183L9.7685 2.43198C8.98931 2.86923 8.08762 3.52028 6.91183 4.37042L6.61887 3.96524L6.91183 4.37042L5.4028 5.4615L5.4028 5.46151C4.45876 6.14407 3.73425 6.6686 3.19293 7.14888C2.64138 7.63824 2.26313 8.09583 2.02622 8.65129C1.7891 9.20723 1.7238 9.7903 1.75883 10.5139C1.79315 11.2228 1.92538 12.0873 2.09813 13.2112L2.09813 13.2113L2.41339 15.2628L1.91919 15.3387L2.41339 15.2628C2.65866 16.8589 2.84769 18.0827 3.1213 19.0271C3.40019 19.9895 3.77481 20.6916 4.41113 21.2208L4.41115 21.2208C5.04646 21.7492 5.81874 22.0023 6.84334 22.1267C6.84335 22.1267 6.84336 22.1268 6.84336 22.1268L6.78306 22.6231C7.828 22.75 9.14615 22.75 10.8111 22.75H13.1889C14.8539 22.75 16.172 22.75 17.217 22.6231L17.0881 4.37041ZM17.0881 4.37041L18.5972 5.46152C19.5412 6.14408 20.2657 6.66861 20.807 7.14888L20.8071 7.1489C21.3587 7.63825 21.7369 8.09582 21.9738 8.65127L21.9738 8.65132C22.2109 9.20724 22.2762 9.79028 22.2412 10.5139L22.2412 10.514C22.2069 11.2229 22.0746 12.0871 21.9019 13.2111L22.3961 13.2871L21.9019 13.2111L21.5866 15.2627L21.5866 15.2628C21.3414 16.8589 21.1523 18.0829 20.8787 19.027C20.5998 19.9895 20.2252 20.6915 19.5889 21.2208L19.5888 21.2208C18.9536 21.7492 18.1813 22.0023 17.1567 22.1267L17.0881 4.37041ZM15.7892 16.3858C16.1284 16.8216 16.0501 17.4499 15.6143 17.7892L15.7892 16.3858ZM15.7892 16.3858C15.4499 15.95 14.8216 15.8717 14.3858 16.2109L15.7892 16.3858ZM9.92146 15.8164L9.9214 15.8163C9.26768 15.3075 8.32524 15.425 7.81639 16.0787C7.30751 16.7324 7.42497 17.6748 8.07863 18.1837L8.07867 18.1838C9.14635 19.0148 10.5222 19.5 12.0001 19.5C13.478 19.5 14.8537 19.0148 15.9214 18.1838L15.9214 18.1837C16.5751 17.6748 16.6926 16.7324 16.1837 16.0787L16.1837 16.0786C15.6748 15.425 14.7324 15.3075 14.0787 15.8163L14.0786 15.8164C13.5472 16.2301 12.8226 16.5 12.0001 16.5C11.1775 16.5 10.4528 16.2301 9.92146 15.8164Z" stroke="#7F3398"/>
</svg>
