<svg width="25" height="32" viewBox="0 0 25 32" fill="none" xmlns="http://www.w3.org/2000/svg">
<path d="M20.3335 7V5C20.3335 3.897 19.4365 3 18.3335 3H5.3335C3.6795 3 2.3335 4.346 2.3335 6V18C2.3335 20.201 4.1275 21 5.3335 21H20.3335C21.4365 21 22.3335 20.103 22.3335 19V9C22.3335 7.897 21.4365 7 20.3335 7ZM18.3335 16H16.3335V12H18.3335V16ZM5.3335 7C5.07602 6.98848 4.8329 6.87809 4.65477 6.69182C4.47664 6.50554 4.37723 6.25774 4.37723 6C4.37723 5.74226 4.47664 5.49446 4.65477 5.30818C4.8329 5.12191 5.07602 5.01152 5.3335 5H18.3335V7H5.3335Z" fill="#7F3398"/>
<circle cx="12.3335" cy="30" r="2" fill="#7F3398"/>
</svg>
