<svg width="25" height="24" viewBox="0 0 25 24" fill="none" xmlns="http://www.w3.org/2000/svg">
<path d="M14.4167 10C14.4167 10.414 14.7527 10.75 15.1667 10.75H15.8567L13.8437 12.763C13.8204 12.7863 13.7928 12.8048 13.7625 12.8174C13.7321 12.83 13.6995 12.8364 13.6667 12.8364C13.6338 12.8364 13.6012 12.83 13.5708 12.8174C13.5405 12.8048 13.5129 12.7863 13.4897 12.763L11.9037 11.177C11.5755 10.8491 11.1306 10.6649 10.6667 10.6649C10.2027 10.6649 9.75781 10.8491 9.42966 11.177L7.13666 13.47C7.06297 13.5387 7.00387 13.6215 6.96288 13.7135C6.92188 13.8055 6.89984 13.9048 6.89807 14.0055C6.89629 14.1062 6.91481 14.2062 6.95253 14.2996C6.99026 14.393 7.0464 14.4778 7.11762 14.549C7.18884 14.6203 7.27367 14.6764 7.36706 14.7141C7.46045 14.7518 7.56048 14.7704 7.66118 14.7686C7.76188 14.7668 7.8612 14.7448 7.9532 14.7038C8.04519 14.6628 8.128 14.6037 8.19666 14.53L10.4897 12.237C10.5129 12.2137 10.5405 12.1952 10.5708 12.1826C10.6012 12.17 10.6338 12.1636 10.6667 12.1636C10.6995 12.1636 10.7321 12.17 10.7625 12.1826C10.7928 12.1952 10.8204 12.2137 10.8437 12.237L12.4297 13.823C12.7578 14.1509 13.2027 14.3351 13.6667 14.3351C14.1306 14.3351 14.5755 14.1509 14.9037 13.823L16.9167 11.811V12.5C16.9167 12.6989 16.9957 12.8897 17.1363 13.0303C17.277 13.171 17.4677 13.25 17.6667 13.25C17.8656 13.25 18.0563 13.171 18.197 13.0303C18.3376 12.8897 18.4167 12.6989 18.4167 12.5V10C18.4167 9.80109 18.3376 9.61032 18.197 9.46967C18.0563 9.32902 17.8656 9.25 17.6667 9.25H15.1667C14.9677 9.25 14.777 9.32902 14.6363 9.46967C14.4957 9.61032 14.4167 9.80109 14.4167 10Z" fill="#7F3398"/>
<path fill-rule="evenodd" clip-rule="evenodd" d="M12.6095 1.25C10.3005 1.25 8.4915 1.25 7.0795 1.44C5.6355 1.634 4.4955 2.04 3.6005 2.934C2.7055 3.829 2.3005 4.969 2.1065 6.414C1.9165 7.825 1.9165 9.634 1.9165 11.943V12.057C1.9165 14.366 1.9165 16.175 2.1065 17.587C2.3005 19.031 2.7065 20.171 3.6005 21.066C4.4955 21.961 5.6355 22.366 7.0805 22.56C8.4915 22.75 10.3005 22.75 12.6095 22.75H12.7235C15.0325 22.75 16.8415 22.75 18.2535 22.56C19.6975 22.366 20.8375 21.96 21.7325 21.066C22.6275 20.171 23.0325 19.031 23.2265 17.586C23.4165 16.175 23.4165 14.366 23.4165 12.057V11.943C23.4165 9.634 23.4165 7.825 23.2265 6.413C23.0325 4.969 22.6265 3.829 21.7325 2.934C20.8375 2.039 19.6975 1.634 18.2525 1.44C16.8415 1.25 15.0325 1.25 12.7235 1.25H12.6095ZM4.6615 3.995C5.2315 3.425 6.0015 3.098 7.2805 2.926C8.5805 2.752 10.2885 2.75 12.6665 2.75C15.0445 2.75 16.7525 2.752 18.0525 2.926C19.3315 3.098 20.1025 3.426 20.6725 3.995C21.2415 4.565 21.5685 5.335 21.7405 6.614C21.9145 7.914 21.9165 9.622 21.9165 12C21.9165 14.378 21.9145 16.086 21.7405 17.386C21.5685 18.665 21.2405 19.436 20.6715 20.006C20.1015 20.575 19.3315 20.902 18.0525 21.074C16.7525 21.248 15.0445 21.25 12.6665 21.25C10.2885 21.25 8.5805 21.248 7.2805 21.074C6.0015 20.902 5.2305 20.574 4.6605 20.005C4.0915 19.435 3.7645 18.665 3.5925 17.386C3.4185 16.086 3.4165 14.378 3.4165 12C3.4165 9.622 3.4185 7.914 3.5925 6.614C3.7645 5.335 4.0925 4.565 4.6615 3.995Z" fill="#7F3398"/>
</svg>
