<svg width="25" height="32" viewBox="0 0 25 32" fill="none" xmlns="http://www.w3.org/2000/svg">
<path fill-rule="evenodd" clip-rule="evenodd" d="M4.1305 3.464C2.6665 4.93 2.6665 7.286 2.6665 12C2.6665 16.714 2.6665 19.071 4.1305 20.535C5.5965 22 7.9525 22 12.6665 22C17.3805 22 19.7375 22 21.2015 20.535C22.6665 19.072 22.6665 16.714 22.6665 12C22.6665 7.286 22.6665 4.929 21.2015 3.464C19.7385 2 17.3805 2 12.6665 2C7.9525 2 5.5955 2 4.1305 3.464ZM14.4165 10C14.4165 10.414 14.7525 10.75 15.1665 10.75H15.8565L13.8435 12.763C13.8203 12.7863 13.7927 12.8048 13.7623 12.8174C13.7319 12.83 13.6994 12.8364 13.6665 12.8364C13.6336 12.8364 13.6011 12.83 13.5707 12.8174C13.5403 12.8048 13.5127 12.7863 13.4895 12.763L11.9035 11.177C11.5754 10.8491 11.1304 10.6649 10.6665 10.6649C10.2026 10.6649 9.75766 10.8491 9.4295 11.177L7.1365 13.47C7.06282 13.5387 7.00371 13.6215 6.96272 13.7135C6.92173 13.8055 6.89969 13.9048 6.89791 14.0055C6.89614 14.1062 6.91466 14.2062 6.95238 14.2996C6.9901 14.393 7.04625 14.4778 7.11747 14.549C7.18868 14.6203 7.27352 14.6764 7.36691 14.7141C7.46029 14.7518 7.56032 14.7704 7.66103 14.7686C7.76173 14.7668 7.86104 14.7448 7.95304 14.7038C8.04504 14.6628 8.12784 14.6037 8.1965 14.53L10.4895 12.237C10.5127 12.2137 10.5403 12.1952 10.5707 12.1826C10.6011 12.17 10.6336 12.1636 10.6665 12.1636C10.6994 12.1636 10.7319 12.17 10.7623 12.1826C10.7927 12.1952 10.8203 12.2137 10.8435 12.237L12.4295 13.823C12.7577 14.1509 13.2026 14.3351 13.6665 14.3351C14.1304 14.3351 14.5754 14.1509 14.9035 13.823L16.9165 11.811V12.5C16.9165 12.6989 16.9955 12.8897 17.1362 13.0303C17.2768 13.171 17.4676 13.25 17.6665 13.25C17.8654 13.25 18.0562 13.171 18.1968 13.0303C18.3375 12.8897 18.4165 12.6989 18.4165 12.5V10C18.4165 9.80109 18.3375 9.61032 18.1968 9.46967C18.0562 9.32902 17.8654 9.25 17.6665 9.25H15.1665C14.9676 9.25 14.7768 9.32902 14.6362 9.46967C14.4955 9.61032 14.4165 9.80109 14.4165 10Z" fill="#51087E"/>
<circle cx="12.6665" cy="30" r="2" fill="#51087E"/>
</svg>
