<svg width="25" height="24" viewBox="0 0 25 24" fill="none" xmlns="http://www.w3.org/2000/svg">
<path d="M16.3335 12H18.3335V16H16.3335V12Z" fill="#51087E"/>
<path d="M20.3335 7V5C20.3335 3.897 19.4365 3 18.3335 3H5.3335C3.6795 3 2.3335 4.346 2.3335 6V18C2.3335 20.201 4.1275 21 5.3335 21H20.3335C21.4365 21 22.3335 20.103 22.3335 19V9C22.3335 7.897 21.4365 7 20.3335 7ZM5.3335 5H18.3335V7H5.3335C5.07602 6.98848 4.8329 6.87809 4.65477 6.69182C4.47664 6.50554 4.37723 6.25774 4.37723 6C4.37723 5.74226 4.47664 5.49446 4.65477 5.30818C4.8329 5.12191 5.07602 5.01152 5.3335 5ZM20.3335 19H5.3455C4.8835 18.988 4.3335 18.805 4.3335 18V8.815C4.6475 8.928 4.9805 9 5.3335 9H20.3335V19Z" fill="#51087E"/>
</svg>
